<svg width="17" height="17" viewBox="0 0 17 17" fill="none" xmlns="http://www.w3.org/2000/svg">
<path d="M16.3074 5.62119L14.8362 4.15006C14.7176 4.03297 14.5593 3.9646 14.3927 3.95842C14.2261 3.95225 14.0632 4.00873 13.9362 4.11672C13.7401 4.28365 13.4884 4.37081 13.231 4.36093C12.9737 4.35105 12.7294 4.24486 12.5467 4.06338C12.3653 3.88066 12.2592 3.63649 12.2493 3.37922C12.2394 3.12195 12.3265 2.87035 12.4934 2.67426C12.6014 2.54723 12.6578 2.38435 12.6517 2.21774C12.6455 2.05112 12.5771 1.89287 12.46 1.77418L10.9876 0.301374C10.8631 0.177176 10.6945 0.107422 10.5187 0.107422C10.3429 0.107422 10.1742 0.177176 10.0498 0.301374L7.70459 2.64626C7.5598 2.79157 7.45061 2.96842 7.38556 3.16297C7.3729 3.20037 7.35179 3.23436 7.32386 3.26228C7.29594 3.2902 7.26195 3.31132 7.22455 3.32398C7.02992 3.38903 6.85304 3.49835 6.70784 3.64335L0.693952 9.65723C0.569754 9.78167 0.5 9.9503 0.5 10.1261C0.5 10.3019 0.569754 10.4705 0.693952 10.595L2.16675 12.0661C2.28545 12.1832 2.4437 12.2516 2.61031 12.2578C2.77693 12.2639 2.93981 12.2074 3.06684 12.0995C3.26248 11.9312 3.51449 11.843 3.77237 11.8527C4.03025 11.8624 4.27494 11.9692 4.45742 12.1517C4.6399 12.3341 4.74667 12.5788 4.75636 12.8367C4.76604 13.0946 4.67791 13.3466 4.50963 13.5423C4.40164 13.6693 4.34517 13.8322 4.35134 13.9988C4.35751 14.1654 4.42588 14.3236 4.54297 14.4423L6.01411 15.9135C6.13854 16.0377 6.30717 16.1074 6.48298 16.1074C6.65879 16.1074 6.82742 16.0377 6.95186 15.9135L12.9657 9.89959C13.1107 9.75444 13.22 9.57769 13.2851 9.38321C13.2977 9.34568 13.3188 9.31158 13.3468 9.28359C13.3748 9.2556 13.4089 9.23447 13.4465 9.22186C13.6409 9.1568 13.8176 9.04761 13.9628 8.90283L16.3077 6.55761C16.4315 6.43319 16.5009 6.26482 16.5008 6.08933C16.5008 5.91385 16.4312 5.74553 16.3074 5.62119ZM8.69435 4.63277C8.64482 4.68231 8.58601 4.72161 8.52129 4.74842C8.45657 4.77524 8.3872 4.78904 8.31715 4.78904C8.24709 4.78904 8.17773 4.77524 8.113 4.74842C8.04828 4.72161 7.98948 4.68231 7.93995 4.63277L7.55625 4.24907C7.45865 4.14854 7.40454 4.01364 7.40559 3.87353C7.40665 3.73342 7.46279 3.59936 7.56188 3.50031C7.66098 3.40125 7.79507 3.34517 7.93518 3.34418C8.07529 3.34319 8.21016 3.39736 8.31065 3.495L8.69435 3.87837C8.74389 3.9279 8.78319 3.9867 8.81001 4.05142C8.83682 4.11615 8.85062 4.18551 8.85062 4.25557C8.85062 4.32562 8.83682 4.39499 8.81001 4.45971C8.78319 4.52443 8.74389 4.58324 8.69435 4.63277ZM10.1612 6.09957C10.0611 6.19952 9.92552 6.25567 9.78412 6.25567C9.64272 6.25567 9.5071 6.19952 9.40708 6.09957L9.04038 5.73287C8.94034 5.63283 8.88414 5.49715 8.88414 5.35567C8.88414 5.21419 8.94034 5.07851 9.04038 4.97847C9.14042 4.87843 9.27611 4.82223 9.41758 4.82223C9.55906 4.82223 9.69475 4.87843 9.79479 4.97847L10.1615 5.34517C10.2112 5.3947 10.2507 5.45355 10.2776 5.51835C10.3045 5.58315 10.3184 5.65263 10.3184 5.7228C10.3185 5.79297 10.3046 5.86247 10.2778 5.92729C10.2509 5.99212 10.2115 6.051 10.1618 6.10057L10.1612 6.09957ZM11.628 7.56637C11.5784 7.61591 11.5196 7.65521 11.4549 7.68203C11.3902 7.70884 11.3208 7.72264 11.2508 7.72264C11.1807 7.72264 11.1113 7.70884 11.0466 7.68203C10.9819 7.65521 10.9231 7.61591 10.8736 7.56637L10.5069 7.19967C10.4093 7.09914 10.3551 6.96424 10.3562 6.82413C10.3573 6.68403 10.4134 6.54996 10.5125 6.45091C10.6116 6.35186 10.7457 6.29577 10.8858 6.29478C11.0259 6.29379 11.1608 6.34797 11.2613 6.4456L11.628 6.8123C11.6778 6.86175 11.7174 6.92055 11.7445 6.98533C11.7716 7.05012 11.7856 7.11961 11.7857 7.18983C11.7859 7.26004 11.7722 7.32959 11.7454 7.3945C11.7186 7.4594 11.6793 7.51837 11.6296 7.56804L11.628 7.56637ZM13.1091 9.05118C13.0596 9.10072 13.0008 9.14002 12.936 9.16683C12.8713 9.19364 12.8019 9.20744 12.7319 9.20744C12.6618 9.20744 12.5925 9.19364 12.5277 9.16683C12.463 9.14002 12.4042 9.10072 12.3547 9.05118L11.9733 8.66781C11.9227 8.61842 11.8825 8.55948 11.8549 8.4944C11.8273 8.42931 11.8129 8.3594 11.8126 8.2887C11.8122 8.21801 11.8259 8.14796 11.8529 8.08262C11.8799 8.01728 11.9196 7.95795 11.9697 7.90808C12.0198 7.85822 12.0793 7.81881 12.1448 7.79215C12.2103 7.76549 12.2804 7.75212 12.3511 7.7528C12.4218 7.75348 12.4916 7.76821 12.5566 7.79612C12.6215 7.82404 12.6803 7.86458 12.7294 7.9154L13.1111 8.29844C13.1606 8.34799 13.1999 8.40681 13.2267 8.47155C13.2534 8.53628 13.2672 8.60565 13.2672 8.67571C13.2672 8.74576 13.2533 8.81513 13.2265 8.87984C13.1996 8.94454 13.1603 9.00333 13.1108 9.05284L13.1091 9.05118Z" fill="#FCFCFC"/>
</svg>
