<svg width="26" height="26" viewBox="0 0 26 26" fill="none" xmlns="http://www.w3.org/2000/svg">
<path d="M17.913 8.19619C17.5416 7.82468 17.3241 7.32666 17.3041 6.80173C17.2841 6.2768 17.4629 5.76366 17.8049 5.36492C17.8332 5.33176 17.8479 5.28913 17.8461 5.24559C17.8443 5.20204 17.8261 5.16079 17.7951 5.1301L15.825 3.15777C15.7925 3.12522 15.7483 3.10693 15.7022 3.10693C15.6562 3.10693 15.612 3.12522 15.5795 3.15777L12.4393 6.29797C12.3234 6.41378 12.2361 6.55502 12.1844 6.71047C12.1328 6.86626 12.0456 7.0079 11.9298 7.12413C11.8139 7.24037 11.6726 7.32802 11.517 7.38011C11.3614 7.43194 11.22 7.51921 11.104 7.63503L3.05084 15.6864C3.01829 15.719 3 15.7631 3 15.8092C3 15.8552 3.01829 15.8994 3.05084 15.9319L5.02094 17.9021C5.05162 17.933 5.09287 17.9512 5.13642 17.953C5.17997 17.9549 5.2226 17.9402 5.25576 17.9119C5.65441 17.5695 6.16766 17.3903 6.69277 17.4103C7.21788 17.4302 7.7161 17.6477 8.08767 18.0193C8.45925 18.3908 8.67676 18.889 8.69668 19.4142C8.71659 19.9393 8.53743 20.4525 8.19506 20.8512C8.16678 20.8843 8.15207 20.927 8.15389 20.9705C8.15571 21.0141 8.17393 21.0553 8.20488 21.086L10.175 23.0561C10.2075 23.0886 10.2517 23.1069 10.2978 23.1069C10.3438 23.1069 10.388 23.0886 10.4205 23.0561L18.4741 15.0029C18.59 14.8869 18.6772 14.7455 18.729 14.59C18.7806 14.4342 18.8678 14.2925 18.9837 14.1763C19.0995 14.0601 19.2408 13.9724 19.3965 13.9203C19.5519 13.8686 19.6932 13.7813 19.809 13.6654L22.9492 10.5252C22.9817 10.4927 23 10.4485 23 10.4025C23 10.3564 22.9817 10.3122 22.9492 10.2797L20.9791 8.30958C20.9484 8.27863 20.9071 8.26041 20.8636 8.25859C20.82 8.25677 20.7774 8.27148 20.7442 8.29976C20.3461 8.64234 19.8332 8.82199 19.3083 8.80279C18.7834 8.78359 18.2851 8.56695 17.913 8.19619Z" stroke="#E0EFEF" stroke-width="1.25" stroke-miterlimit="10"/>
<path d="M12.7541 7.948L12.0171 7.21094M14.7193 9.91319L14.2278 9.42211M16.6845 11.8788L16.1935 11.3873M18.8957 14.0895L18.1586 13.3525" stroke="#E0EFEF" stroke-width="1.25" stroke-miterlimit="10" stroke-linecap="round"/>
</svg>
