<svg width="26" height="26" viewBox="0 0 26 26" fill="none" xmlns="http://www.w3.org/2000/svg">
<path d="M17.913 7.69619C17.5416 7.32468 17.3241 6.82666 17.3041 6.30173C17.2841 5.7768 17.4629 5.26366 17.8049 4.86492C17.8332 4.83176 17.8479 4.78913 17.8461 4.74559C17.8443 4.70204 17.8261 4.66079 17.7951 4.6301L15.825 2.65777C15.7925 2.62522 15.7483 2.60693 15.7022 2.60693C15.6562 2.60693 15.612 2.62522 15.5795 2.65777L12.4393 5.79797C12.3234 5.91378 12.2361 6.05502 12.1844 6.21047C12.1328 6.36626 12.0456 6.5079 11.9298 6.62413C11.8139 6.74037 11.6726 6.82802 11.517 6.88011C11.3614 6.93194 11.22 7.01921 11.104 7.13503L3.05084 15.1864C3.01829 15.219 3 15.2631 3 15.3092C3 15.3552 3.01829 15.3994 3.05084 15.4319L5.02094 17.4021C5.05162 17.433 5.09287 17.4512 5.13642 17.453C5.17997 17.4549 5.2226 17.4402 5.25576 17.4119C5.65441 17.0695 6.16766 16.8903 6.69277 16.9103C7.21788 16.9302 7.7161 17.1477 8.08767 17.5193C8.45925 17.8908 8.67676 18.389 8.69668 18.9142C8.71659 19.4393 8.53743 19.9525 8.19506 20.3512C8.16678 20.3843 8.15207 20.427 8.15389 20.4705C8.15571 20.5141 8.17393 20.5553 8.20488 20.586L10.175 22.5561C10.2075 22.5886 10.2517 22.6069 10.2978 22.6069C10.3438 22.6069 10.388 22.5886 10.4205 22.5561L18.4741 14.5029C18.59 14.3869 18.6772 14.2455 18.729 14.09C18.7806 13.9342 18.8678 13.7925 18.9837 13.6763C19.0995 13.5601 19.2408 13.4724 19.3965 13.4203C19.5519 13.3686 19.6932 13.2813 19.809 13.1654L22.9492 10.0252C22.9817 9.99266 23 9.9485 23 9.90245C23 9.85641 22.9817 9.81225 22.9492 9.77968L20.9791 7.80958C20.9484 7.77863 20.9071 7.76041 20.8636 7.75859C20.82 7.75677 20.7774 7.77148 20.7442 7.79976C20.3461 8.14234 19.8332 8.32199 19.3083 8.30279C18.7834 8.28359 18.2851 8.06695 17.913 7.69619Z" stroke="#41625C" stroke-width="1.25" stroke-miterlimit="10"/>
<path d="M12.7544 7.448L12.0173 6.71094M14.7196 9.41319L14.2281 8.92211M16.6848 11.3788L16.1937 10.8873M18.8959 13.5895L18.1589 12.8525" stroke="#41625C" stroke-width="1.25" stroke-miterlimit="10" stroke-linecap="round"/>
</svg>
